{
	"asset":{
		"generator":"Khronos glTF Blender I/O v3.5.30",
		"version":"2.0"
	},
	"extensionsUsed":[
		"KHR_materials_specular",
		"KHR_materials_ior"
	],
	"scene":0,
	"scenes":[
		{
			"name":"Scene",
			"nodes":[
				0
			]
		}
	],
	"nodes":[
		{
			"mesh":0,
			"name":"Cube"
		}
	],
	"materials":[
		{
			"doubleSided":true,
			"extensions":{
				"KHR_materials_specular":{
					"specularColorFactor":[
						0.044478304503531935,
						0.05410021286855772,
						0.042792197767375785
					]
				},
				"KHR_materials_ior":{
					"ior":3.5999999046325684
				}
			},
			"name":"Material",
			"pbrMetallicRoughness":{
				"baseColorFactor":[
					0.13381166756153107,
					0.47907689213752747,
					0.07330869883298874,
					1
				],
				"metallicFactor":0.48636364936828613,
				"roughnessFactor":0.40909090638160706
			}
		}
	],
	"meshes":[
		{
			"name":"Cube",
			"primitives":[
				{
					"attributes":{
						"POSITION":0,
						"TEXCOORD_0":1,
						"NORMAL":2
					},
					"indices":3,
					"material":0
				}
			]
		}
	],
	"accessors":[
		{
			"bufferView":0,
			"componentType":5126,
			"count":304,
			"max":[
				1.8217427730560303,
				1.2508559226989746,
				1.6450395584106445
			],
			"min":[
				-1.4236526489257812,
				-1,
				-1.3345659971237183
			],
			"type":"VEC3"
		},
		{
			"bufferView":1,
			"componentType":5126,
			"count":304,
			"type":"VEC2"
		},
		{
			"bufferView":2,
			"componentType":5126,
			"count":304,
			"type":"VEC3"
		},
		{
			"bufferView":3,
			"componentType":5123,
			"count":672,
			"type":"SCALAR"
		}
	],
	"bufferViews":[
		{
			"buffer":0,
			"byteLength":3648,
			"byteOffset":0,
			"target":34962
		},
		{
			"buffer":0,
			"byteLength":2432,
			"byteOffset":3648,
			"target":34962
		},
		{
			"buffer":0,
			"byteLength":3648,
			"byteOffset":6080,
			"target":34962
		},
		{
			"buffer":0,
			"byteLength":1344,
			"byteOffset":9728,
			"target":34963
		}
	],
	"buffers":[
		{
			"byteLength":11072,
			"uri":"test.bin"
		}
	]
}
