# Blender 3.5.1
# www.blender.org
mtllib test.mtl
o Cube
v 1.000000 1.235963 -1.000000
v 1.000000 -1.000000 -1.000000
v 1.000000 1.000000 1.000000
v 1.000000 -1.000000 1.000000
v -1.000000 1.250856 -1.000000
v -1.000000 -1.000000 -1.000000
v -1.000000 1.249675 1.000000
v -1.000000 -1.000000 1.000000
v -1.000000 -1.000000 0.000000
v 1.000000 1.000000 0.000000
v -1.000000 0.757016 0.000000
v 1.441290 -1.000000 0.000000
v -1.423653 -1.000000 0.500000
v 1.000000 1.000000 0.500000
v -1.000000 1.000000 0.500000
v 1.441290 -1.000000 0.500000
v -1.000000 1.000000 -0.500000
v 1.441290 -1.000000 -0.500000
v -1.423653 -1.000000 -0.500000
v 1.000000 1.000000 -0.500000
v 1.000000 0.000000 -1.000000
v -1.000000 0.000000 1.000000
v 1.000000 0.000000 1.000000
v -1.000000 0.000000 -1.000000
v 1.000000 0.000000 0.000000
v -1.000000 0.000000 0.000000
v -1.000000 0.000000 0.500000
v 1.000000 0.000000 0.500000
v 1.000000 0.000000 -0.500000
v -1.000000 0.000000 -0.500000
v -1.000000 0.500000 1.000000
v 1.000000 0.500000 -1.000000
v 1.000000 0.500000 1.000000
v -1.000000 0.500000 -1.000000
v 1.000000 0.500000 0.000000
v -1.000000 0.500000 0.000000
v -1.000000 0.500000 0.500000
v 1.000000 0.500000 0.500000
v 1.000000 0.500000 -0.500000
v -1.000000 0.500000 -0.500000
v 1.000000 -0.500000 -1.000000
v 1.000000 -0.500000 1.000000
v -1.000000 -0.500000 -1.000000
v 1.441290 -0.500000 0.000000
v -1.000000 -0.500000 0.000000
v -1.000000 -0.500000 0.500000
v 1.441290 -0.500000 0.500000
v 1.441290 -0.500000 -0.500000
v -1.000000 -0.500000 -0.500000
v -1.000000 -0.500000 1.000000
v 0.000000 -1.000000 -1.334566
v 0.000000 1.000000 1.000000
v 0.000000 -1.000000 1.000000
v 0.000000 1.235963 -1.000000
v 0.000000 -1.000000 0.000000
v 0.000000 1.239892 0.000000
v 0.000000 -1.000000 0.500000
v 0.000000 1.239892 0.500000
v 0.000000 1.000000 -0.500000
v 0.000000 -1.000000 -0.500000
v 0.000000 0.000000 -1.334566
v 0.000000 0.000000 1.000000
v 0.000000 0.500000 -1.257772
v 0.000000 0.500000 1.000000
v 0.000000 -0.500000 1.000000
v 0.000000 -0.500000 -1.334566
v -0.500000 -1.000000 -1.000000
v -0.500000 1.000000 1.000000
v -0.500000 -1.000000 0.000000
v -0.500000 -1.000000 0.500000
v -0.500000 -1.000000 -0.500000
v -0.500000 0.000000 1.000000
v -0.500000 0.500000 1.000000
v -0.500000 -0.500000 1.000000
v -0.500000 -1.000000 1.000000
v -0.500000 1.000000 -1.000000
v -0.500000 1.000000 0.000000
v -0.500000 1.000000 0.500000
v -0.500000 1.000000 -0.500000
v -0.500000 0.000000 -1.000000
v -0.500000 0.500000 -1.000000
v -0.500000 -0.500000 -1.000000
v 0.500122 -1.000000 1.000000
v 0.500122 1.235963 -1.000000
v 0.500122 1.239892 0.000000
v 0.500122 1.239892 0.500000
v 0.500122 1.000000 -0.500000
v 0.500122 0.000000 -1.334566
v 0.500122 0.500000 -1.257772
v 0.500122 -0.500000 -1.334566
v 0.500122 -1.000000 -1.334566
v 0.500122 1.000000 1.000000
v 0.500122 -1.000000 0.000000
v 0.500122 -1.000000 0.500000
v 0.500122 -1.000000 -0.500000
v 0.500122 0.000000 1.000000
v 0.500122 0.500000 1.000000
v 0.500122 -0.500000 1.000000
v -0.500000 -1.000000 1.645040
v 0.000000 -1.000000 1.645040
v 0.500122 -0.500000 1.645040
v 0.000000 -0.500000 1.645040
v -0.500000 -0.500000 1.645040
v 0.500122 -1.000000 1.645040
v 0.500122 0.000000 1.347806
v 0.000000 0.000000 1.347806
v 0.500122 -0.500000 1.347806
v 0.000000 -0.500000 1.347806
v -0.500000 0.000000 1.347806
v -0.500000 -0.500000 1.347806
v 1.821743 -1.000000 0.500000
v 1.821743 -1.000000 0.000000
v 1.821743 -0.881043 0.000000
v 1.821743 -0.881043 0.500000
vn 0.2354 0.9429 -0.2354
vn -0.0000 -0.0000 1.0000
vn -1.0000 -0.0000 -0.0000
vn -0.0000 -1.0000 -0.0000
vn 1.0000 -0.0000 -0.0000
vn 0.2462 0.1672 -0.9547
vn -0.2298 0.9457 0.2298
vn -0.2298 0.9457 -0.2298
vn 0.2364 0.9424 0.2364
vn 0.8483 0.3744 -0.3744
vn 0.7498 0.6617 -0.0000
vn 0.5562 -0.0000 -0.8310
vn 0.8483 0.3744 0.3744
vn 0.5086 0.0659 -0.8585
vn -0.8578 0.3634 -0.3634
vn 0.7498 -0.0000 0.6617
vn -0.8578 0.3634 0.3634
vn -0.0000 -0.0000 -1.0000
vn 0.7498 -0.0000 -0.6617
vn -0.5561 -0.0000 -0.8311
vn -0.5085 0.0659 -0.8585
vn -0.0000 0.9044 0.4268
vn -0.0000 1.0000 -0.0000
vn -0.0000 0.9016 -0.4326
vn -0.2878 0.1955 -0.9375
vn -0.0000 0.9016 0.4326
vn -0.2238 0.9486 0.2238
vn -0.4326 0.9016 -0.0000
vn -0.2272 0.9470 -0.2272
vn -0.2272 0.9470 0.2272
vn 0.2272 0.9470 0.2272
vn 0.2272 0.9470 -0.2272
vn 0.4327 0.9016 -0.0000
vn -0.0000 0.1518 -0.9884
vn -0.0000 0.3306 -0.9438
vn 0.7077 0.7066 -0.0000
vt 0.625000 0.500000
vt 0.375000 0.500000
vt 0.625000 0.750000
vt 0.375000 0.750000
vt 0.875000 0.500000
vt 0.625000 0.250000
vt 0.125000 0.500000
vt 0.375000 0.250000
vt 0.875000 0.750000
vt 0.625000 1.000000
vt 0.625000 0.000000
vt 0.375000 1.000000
vt 0.375000 0.000000
vt 0.125000 0.750000
vt 0.375000 0.125000
vt 0.125000 0.625000
vt 0.625000 0.625000
vt 0.875000 0.625000
vt 0.625000 0.125000
vt 0.375000 0.625000
vt 0.375000 0.062500
vt 0.125000 0.687500
vt 0.625000 0.687500
vt 0.625000 0.062500
vt 0.875000 0.687500
vt 0.375000 0.687500
vt 0.875000 0.562500
vt 0.625000 0.187500
vt 0.375000 0.562500
vt 0.375000 0.187500
vt 0.125000 0.562500
vt 0.625000 0.562500
vt 0.500000 0.500000
vt 0.500000 0.000000
vt 0.500000 1.000000
vt 0.500000 0.750000
vt 0.500000 0.250000
vt 0.500000 0.625000
vt 0.500000 0.125000
vt 0.500000 0.062500
vt 0.500000 0.687500
vt 0.500000 0.562500
vt 0.500000 0.187500
vt 0.562500 0.000000
vt 0.562500 1.000000
vt 0.562500 0.500000
vt 0.562500 0.750000
vt 0.562500 0.250000
vt 0.562500 0.625000
vt 0.562500 0.125000
vt 0.562500 0.062500
vt 0.562500 0.687500
vt 0.562500 0.562500
vt 0.562500 0.187500
vt 0.437500 0.500000
vt 0.437500 0.750000
vt 0.437500 0.250000
vt 0.437500 0.625000
vt 0.437500 0.125000
vt 0.437500 0.062500
vt 0.437500 0.687500
vt 0.437500 0.562500
vt 0.437500 0.187500
vt 0.437500 1.000000
vt 0.437500 0.000000
vt 0.375000 0.375000
vt 0.250000 0.500000
vt 0.625000 0.875000
vt 0.750000 0.750000
vt 0.250000 0.750000
vt 0.750000 0.500000
vt 0.625000 0.375000
vt 0.250000 0.625000
vt 0.750000 0.625000
vt 0.250000 0.687500
vt 0.750000 0.687500
vt 0.750000 0.562500
vt 0.250000 0.562500
vt 0.500000 0.375000
vt 0.500000 0.875000
vt 0.562500 0.375000
vt 0.562500 0.875000
vt 0.437500 0.875000
vt 0.437500 0.375000
vt 0.187500 0.500000
vt 0.375000 0.312500
vt 0.625000 0.937500
vt 0.812500 0.750000
vt 0.187500 0.625000
vt 0.187500 0.687500
vt 0.187500 0.562500
vt 0.500000 0.937500
vt 0.562500 0.937500
vt 0.437500 0.937500
vt 0.375000 0.937500
vt 0.187500 0.750000
vt 0.625000 0.312500
vt 0.812500 0.500000
vt 0.812500 0.625000
vt 0.812500 0.687500
vt 0.812500 0.562500
vt 0.500000 0.312500
vt 0.562500 0.312500
vt 0.437500 0.312500
vt 0.375000 0.812485
vt 0.312515 0.750000
vt 0.687485 0.500000
vt 0.625000 0.437515
vt 0.687485 0.625000
vt 0.687485 0.687500
vt 0.687485 0.562500
vt 0.500000 0.437515
vt 0.562500 0.437515
vt 0.437500 0.437515
vt 0.375000 0.437515
vt 0.312515 0.500000
vt 0.687485 0.750000
vt 0.625000 0.812485
vt 0.312515 0.625000
vt 0.312515 0.687500
vt 0.312515 0.562500
vt 0.500000 0.812485
vt 0.562500 0.812485
vt 0.437500 0.812485
vt 0.375000 0.937500
vt 0.187500 0.750000
vt 0.375000 0.875000
vt 0.250000 0.750000
vt 0.437500 0.812485
vt 0.437500 0.875000
vt 0.437500 0.937500
vt 0.375000 0.812485
vt 0.312515 0.750000
vt 0.500000 0.812485
vt 0.500000 0.875000
vt 0.437500 0.812485
vt 0.437500 0.875000
vt 0.500000 0.937500
vt 0.437500 0.937500
vt 0.375000 0.687500
vt 0.375000 0.625000
vt 0.437500 0.625000
vt 0.437500 0.687500
s 0
usemtl Material
f 78/100/1 15/25/1 7/9/1 68/88/1
f 73/93/2 68/87/2 7/10/2 31/45/2
f 40/54/3 17/28/3 5/6/3 34/48/3
f 94/120/4 16/26/4 4/4/4 83/106/4
f 38/52/5 14/23/5 3/3/5 33/47/5
f 89/113/6 84/108/6 1/1/6 32/46/6
f 39/53/5 20/32/5 10/17/5 35/49/5
f 95/121/4 18/29/4 12/20/4 93/119/4
f 37/51/3 15/24/3 11/19/3 36/50/3
f 79/101/7 17/27/7 11/18/7 77/99/7
f 31/44/3 7/11/3 15/24/3 37/51/3
f 35/49/5 10/17/5 14/23/5 38/52/5
f 93/119/4 12/20/4 16/26/4 94/120/4
f 77/99/8 11/18/8 15/25/8 78/100/8
f 76/98/9 5/5/9 17/27/9 79/101/9
f 91/116/4 2/2/4 18/29/4 95/121/4
f 32/46/5 1/1/5 20/32/5 39/53/5
f 36/50/3 11/19/3 17/28/3 40/54/3
f 45/59/3 26/39/3 30/43/3 49/63/3
f 41/55/10 21/33/10 29/42/10 48/62/10
f 44/58/11 25/38/11 28/41/11 47/61/11
f 50/65/3 22/34/3 27/40/3 46/60/3
f 46/60/3 27/40/3 26/39/3 45/59/3
f 48/62/11 29/42/11 25/38/11 44/58/11
f 90/114/12 88/112/12 21/33/12 41/55/12
f 47/61/13 28/41/13 23/36/13 42/56/13
f 49/63/3 30/43/3 24/37/3 43/57/3
f 74/94/2 72/92/2 22/35/2 50/64/2
f 26/39/3 36/50/3 40/54/3 30/43/3
f 21/33/5 32/46/5 39/53/5 29/42/5
f 25/38/5 35/49/5 38/52/5 28/41/5
f 22/34/3 31/44/3 37/51/3 27/40/3
f 27/40/3 37/51/3 36/50/3 26/39/3
f 29/42/5 39/53/5 35/49/5 25/38/5
f 88/112/14 89/113/14 32/46/14 21/33/14
f 28/41/5 38/52/5 33/47/5 23/36/5
f 30/43/3 40/54/3 34/48/3 24/37/3
f 72/92/2 73/93/2 31/45/2 22/35/2
f 75/95/2 74/94/2 50/64/2 8/12/2
f 19/30/15 49/63/15 43/57/15 6/8/15
f 16/26/16 47/61/16 42/56/16 4/4/16
f 91/115/12 90/114/12 41/55/12 2/2/12
f 18/29/5 48/62/5 44/58/5 12/20/5
f 13/21/15 46/60/15 45/59/15 9/15/15
f 8/13/17 50/65/17 46/60/17 13/21/17
f 12/20/18 44/58/18 113/142/18 112/141/18
f 2/2/19 41/55/19 48/62/19 18/29/19
f 9/15/17 45/59/17 49/63/17 19/30/17
f 67/86/20 82/104/20 66/84/20 51/66/20
f 83/105/5 98/124/5 101/129/5 104/132/5
f 96/122/2 97/123/2 64/82/2 62/80/2
f 80/102/21 81/103/21 63/81/21 61/79/21
f 74/94/4 65/83/4 108/137/4 110/139/4
f 82/104/20 80/102/20 61/79/20 66/84/20
f 67/85/4 51/67/4 60/78/4 71/91/4
f 84/107/22 54/71/22 59/77/22 87/111/22
f 85/109/23 56/74/23 58/76/23 86/110/23
f 69/89/4 55/73/4 57/75/4 70/90/4
f 87/111/24 59/77/24 56/74/24 85/109/24
f 71/91/4 60/78/4 55/73/4 69/89/4
f 81/103/25 76/97/25 54/72/25 63/81/25
f 70/90/4 57/75/4 53/70/4 75/96/4
f 97/123/2 92/118/2 52/68/2 64/82/2
f 86/110/26 58/76/26 52/69/26 92/117/26
f 13/22/4 70/90/4 75/96/4 8/14/4
f 34/48/18 5/6/18 76/97/18 81/103/18
f 19/31/4 71/91/4 69/89/4 9/16/4
f 9/16/4 69/89/4 70/90/4 13/22/4
f 6/7/4 67/85/4 71/91/4 19/31/4
f 43/57/18 24/37/18 80/102/18 82/104/18
f 24/37/18 34/48/18 81/103/18 80/102/18
f 6/8/18 43/57/18 82/104/18 67/86/18
f 74/94/3 75/95/3 99/125/3 103/131/3
f 62/80/2 64/82/2 73/93/2 72/92/2
f 98/124/5 96/122/5 105/134/5 107/136/5
f 54/71/27 76/98/27 79/101/27 59/77/27
f 56/74/28 77/99/28 78/100/28 58/76/28
f 59/77/29 79/101/29 77/99/29 56/74/29
f 64/82/2 52/68/2 68/87/2 73/93/2
f 58/76/30 78/100/30 68/88/30 52/69/30
f 14/23/31 86/110/31 92/117/31 3/3/31
f 33/47/2 3/3/2 92/118/2 97/123/2
f 20/32/32 87/111/32 85/109/32 10/17/32
f 10/17/33 85/109/33 86/110/33 14/23/33
f 1/1/22 84/107/22 87/111/22 20/32/22
f 42/56/2 23/36/2 96/122/2 98/124/2
f 23/36/2 33/47/2 97/123/2 96/122/2
f 4/4/2 42/56/2 98/124/2 83/105/2
f 51/66/18 66/84/18 90/114/18 91/115/18
f 61/79/34 63/81/34 89/113/34 88/112/34
f 66/84/18 61/79/18 88/112/18 90/114/18
f 51/67/4 91/116/4 95/121/4 60/78/4
f 55/73/4 93/119/4 94/120/4 57/75/4
f 60/78/4 95/121/4 93/119/4 55/73/4
f 63/81/35 54/72/35 84/108/35 89/113/35
f 57/75/4 94/120/4 83/106/4 53/70/4
f 104/132/2 101/129/2 102/130/2 100/127/2
f 100/127/2 102/130/2 103/131/2 99/125/2
f 65/83/23 74/94/23 103/131/23 102/130/23
f 75/96/4 53/70/4 100/128/4 99/126/4
f 53/70/4 83/106/4 104/133/4 100/128/4
f 98/124/23 65/83/23 102/130/23 101/129/23
f 107/136/2 105/134/2 106/135/2 108/137/2
f 108/137/2 106/135/2 109/138/2 110/139/2
f 62/80/23 72/92/23 109/138/23 106/135/23
f 96/122/23 62/80/23 106/135/23 105/134/23
f 72/92/3 74/94/3 110/139/3 109/138/3
f 65/83/4 98/124/4 107/136/4 108/137/4
f 112/141/5 113/142/5 114/143/5 111/140/5
f 44/58/36 47/61/36 114/143/36 113/142/36
f 47/61/2 16/26/2 111/140/2 114/143/2
f 16/26/4 12/20/4 112/141/4 111/140/4
