{
  "accessors": [
    {
      "bufferView": 2,
      "componentType": 5126,
      "count": 42241,
      "max": [
        1.4600085020065308,
        3.2136569023132324,
        1.9962027072906494
      ],
      "min": [
        -1.4600086212158203,
        -4.049752235412598,
        0.3058570623397827
      ],
      "type": "VEC3"
    },
    {
      "bufferView": 2,
      "byteOffset": 506892,
      "componentType": 5126,
      "count": 42241,
      "max": [
        1.0,
        1.0,
        1.0
      ],
      "min": [
        -1.0,
        -1.0,
        -1.0
      ],
      "type": "VEC3"
    },
    {
      "bufferView": 3,
      "componentType": 5126,
      "count": 42241,
      "max": [
        1.0,
        1.0,
        1.0,
        1.0
      ],
      "min": [
        -1.0,
        -1.0,
        -1.0,
        -1.0
      ],
      "type": "VEC4"
    },
    {
      "bufferView": 1,
      "componentType": 5126,
      "count": 42241,
      "max": [
        0.9955446720123291,
        0.9936959743499756
      ],
      "min": [
        0.0049790143966674805,
        0.01117789652198553
      ],
      "type": "VEC2"
    },
    {
      "bufferView": 0,
      "componentType": 5125,
      "count": 237648,
      "type": "SCALAR"
    },
    {
      "bufferView": 2,
      "byteOffset": 1013784,
      "componentType": 5126,
      "count": 1564,
      "max": [
        1.367177963256836,
        3.1418769359588623,
        1.1792397499084473
      ],
      "min": [
        -1.367177963256836,
        -3.873028516769409,
        0.5559353828430176
      ],
      "type": "VEC3"
    },
    {
      "bufferView": 2,
      "byteOffset": 1032552,
      "componentType": 5126,
      "count": 1564,
      "max": [
        1.0,
        1.0,
        1.0
      ],
      "min": [
        -1.0,
        -1.0,
        -1.0
      ],
      "type": "VEC3"
    },
    {
      "bufferView": 3,
      "byteOffset": 675856,
      "componentType": 5126,
      "count": 1564,
      "max": [
        0.9996663331985474,
        0.9997194409370422,
        0.8788857460021973,
        1.0
      ],
      "min": [
        -0.9996663331985474,
        -0.9999726414680481,
        -0.9968602657318115,
        -1.0
      ],
      "type": "VEC4"
    },
    {
      "bufferView": 1,
      "byteOffset": 337928,
      "componentType": 5126,
      "count": 1564,
      "max": [
        0.9902831315994263,
        0.9752614498138428
      ],
      "min": [
        0.007010936737060547,
        0.013348788022994995
      ],
      "type": "VEC2"
    },
    {
      "bufferView": 1,
      "byteOffset": 350440,
      "componentType": 5126,
      "count": 1564,
      "max": [
        0.9902831315994263,
        0.9752614498138428
      ],
      "min": [
        0.007010936737060547,
        0.013348788022994995
      ],
      "type": "VEC2"
    },
    {
      "bufferView": 0,
      "byteOffset": 950592,
      "componentType": 5125,
      "count": 6504,
      "type": "SCALAR"
    },
    {
      "bufferView": 2,
      "byteOffset": 1051320,
      "componentType": 5126,
      "count": 992,
      "max": [
        1.399003267288208,
        -3.321794033050537,
        1.206967830657959
      ],
      "min": [
        -1.399003267288208,
        -3.8018932342529297,
        0.7803329229354858
      ],
      "type": "VEC3"
    },
    {
      "bufferView": 2,
      "byteOffset": 1063224,
      "componentType": 5126,
      "count": 992,
      "max": [
        0.9977400302886963,
        0.9981762766838074,
        0.992824137210846
      ],
      "min": [
        -0.9977400302886963,
        -0.9970133304595947,
        -0.9800381064414978
      ],
      "type": "VEC3"
    },
    {
      "bufferView": 3,
      "byteOffset": 700880,
      "componentType": 5126,
      "count": 992,
      "max": [
        0.9913777112960815,
        0.9973543882369995,
        0.9744743704795837,
        1.0
      ],
      "min": [
        -0.9913777709007263,
        -0.9865273237228394,
        -0.9734992980957031,
        -1.0
      ],
      "type": "VEC4"
    },
    {
      "bufferView": 1,
      "byteOffset": 362952,
      "componentType": 5126,
      "count": 992,
      "max": [
        0.33628523349761963,
        0.40077394247055054
      ],
      "min": [
        0.32553571462631226,
        0.38983815908432007
      ],
      "type": "VEC2"
    },
    {
      "bufferView": 0,
      "byteOffset": 976608,
      "componentType": 5125,
      "count": 4056,
      "type": "SCALAR"
    },
    {
      "bufferView": 2,
      "byteOffset": 1075128,
      "componentType": 5126,
      "count": 1371,
      "max": [
        1.3861571550369263,
        1.3125773668289185,
        1.9013313055038452
      ],
      "min": [
        -1.3861571550369263,
        -3.791703701019287,
        0.8043422102928162
      ],
      "type": "VEC3"
    },
    {
      "bufferView": 2,
      "byteOffset": 1091580,
      "componentType": 5126,
      "count": 1371,
      "max": [
        0.9631577134132385,
        1.0,
        1.0
      ],
      "min": [
        -0.9631577134132385,
        -1.0,
        -1.0
      ],
      "type": "VEC3"
    },
    {
      "bufferView": 1,
      "byteOffset": 370888,
      "componentType": 5126,
      "count": 1371,
      "max": [
        1.0,
        1.0
      ],
      "min": [
        0.0,
        0.0
      ],
      "type": "VEC2"
    },
    {
      "bufferView": 0,
      "byteOffset": 992832,
      "componentType": 5125,
      "count": 5496,
      "type": "SCALAR"
    },
    {
      "bufferView": 2,
      "byteOffset": 1108032,
      "componentType": 5126,
      "count": 4862,
      "max": [
        0.6234349012374878,
        0.6234349012374878,
        0.2161920666694641
      ],
      "min": [
        -0.6234350800514221,
        -0.623434841632843,
        -2.6321468353271484
      ],
      "type": "VEC3"
    },
    {
      "bufferView": 2,
      "byteOffset": 1166376,
      "componentType": 5126,
      "count": 4862,
      "max": [
        1.0,
        1.0,
        1.0
      ],
      "min": [
        -1.0,
        -1.0,
        -1.0
      ],
      "type": "VEC3"
    },
    {
      "bufferView": 3,
      "byteOffset": 716752,
      "componentType": 5126,
      "count": 4862,
      "max": [
        1.0,
        1.0,
        1.0,
        1.0
      ],
      "min": [
        -1.0,
        -0.9999642968177795,
        -1.0,
        -1.0
      ],
      "type": "VEC4"
    },
    {
      "bufferView": 1,
      "byteOffset": 381856,
      "componentType": 5126,
      "count": 4862,
      "max": [
        0.9873600006103516,
        0.9082839488983154
      ],
      "min": [
        0.017379015684127808,
        0.043213874101638794
      ],
      "type": "VEC2"
    },
    {
      "bufferView": 1,
      "byteOffset": 420752,
      "componentType": 5126,
      "count": 4862,
      "max": [
        0.9873600006103516,
        0.9082839488983154
      ],
      "min": [
        0.017379015684127808,
        0.043213874101638794
      ],
      "type": "VEC2"
    },
    {
      "bufferView": 0,
      "byteOffset": 1014816,
      "componentType": 5125,
      "count": 15552,
      "type": "SCALAR"
    },
    {
      "bufferView": 2,
      "byteOffset": 1224720,
      "componentType": 5126,
      "count": 3122,
      "max": [
        1.4611363410949707,
        3.0599257946014404,
        1.6038055419921875
      ],
      "min": [
        -1.459803581237793,
        -3.9486374855041504,
        -0.08957692980766296
      ],
      "type": "VEC3"
    },
    {
      "bufferView": 2,
      "byteOffset": 1262184,
      "componentType": 5126,
      "count": 3122,
      "max": [
        1.0,
        1.0,
        1.0
      ],
      "min": [
        -1.0,
        -1.0,
        -1.0
      ],
      "type": "VEC3"
    },
    {
      "bufferView": 3,
      "byteOffset": 794544,
      "componentType": 5126,
      "count": 3122,
      "max": [
        1.0,
        1.0,
        1.0,
        1.0
      ],
      "min": [
        -1.0,
        -1.0,
        -1.0,
        1.0
      ],
      "type": "VEC4"
    },
    {
      "bufferView": 1,
      "byteOffset": 459648,
      "componentType": 5126,
      "count": 3122,
      "max": [
        0.9993368983268738,
        0.9818918704986572
      ],
      "min": [
        0.000663139799144119,
        0.000663139799144119
      ],
      "type": "VEC2"
    },
    {
      "bufferView": 0,
      "byteOffset": 1077024,
      "componentType": 5125,
      "count": 8730,
      "type": "SCALAR"
    },
    {
      "bufferView": 2,
      "byteOffset": 1299648,
      "componentType": 5126,
      "count": 4862,
      "max": [
        0.6121692061424255,
        0.6121692061424255,
        0.1773792952299118
      ],
      "min": [
        -0.6121693849563599,
        -0.6121691465377808,
        -2.6290571689605713
      ],
      "type": "VEC3"
    },
    {
      "bufferView": 2,
      "byteOffset": 1357992,
      "componentType": 5126,
      "count": 4862,
      "max": [
        1.0,
        1.0,
        1.0
      ],
      "min": [
        -1.0,
        -1.0,
        -1.0
      ],
      "type": "VEC3"
    },
    {
      "bufferView": 3,
      "byteOffset": 844496,
      "componentType": 5126,
      "count": 4862,
      "max": [
        1.0,
        1.0,
        1.0,
        1.0
      ],
      "min": [
        -1.0,
        -0.9999932050704956,
        -1.0,
        -1.0
      ],
      "type": "VEC4"
    },
    {
      "bufferView": 1,
      "byteOffset": 484624,
      "componentType": 5126,
      "count": 4862,
      "max": [
        0.9873600006103516,
        0.9082839488983154
      ],
      "min": [
        0.017379015684127808,
        0.043213874101638794
      ],
      "type": "VEC2"
    },
    {
      "bufferView": 1,
      "byteOffset": 523520,
      "componentType": 5126,
      "count": 4862,
      "max": [
        0.9873600006103516,
        0.9082839488983154
      ],
      "min": [
        0.017379015684127808,
        0.043213874101638794
      ],
      "type": "VEC2"
    },
    {
      "bufferView": 0,
      "byteOffset": 1111944,
      "componentType": 5125,
      "count": 15552,
      "type": "SCALAR"
    }
  ],
  "asset": {
    "extras": {
      "author": "dagtholander (https://sketchfab.com/dagtholander)",
      "license": "CC-BY-4.0 (http://creativecommons.org/licenses/by/4.0/)",
      "source": "https://sketchfab.com/3d-models/1964-ferrari-250-gto-849c88c65911496d92363dc2980f6f4e",
      "title": "1964 Ferrari 250 GTO"
    },
    "generator": "Sketchfab-12.68.0",
    "version": "2.0"
  },
  "bufferViews": [
    {
      "buffer": 0,
      "byteLength": 1174152,
      "name": "floatBufferViews",
      "target": 34963
    },
    {
      "buffer": 0,
      "byteLength": 562416,
      "byteOffset": 1174152,
      "byteStride": 8,
      "name": "floatBufferViews",
      "target": 34962
    },
    {
      "buffer": 0,
      "byteLength": 1416336,
      "byteOffset": 1736568,
      "byteStride": 12,
      "name": "floatBufferViews",
      "target": 34962
    },
    {
      "buffer": 0,
      "byteLength": 922288,
      "byteOffset": 3152904,
      "byteStride": 16,
      "name": "floatBufferViews",
      "target": 34962
    }
  ],
  "buffers": [
    {
      "byteLength": 4075192,
      "uri": "scene.bin"
    }
  ],
  "extensionsUsed": [
    "KHR_materials_clearcoat",
    "KHR_materials_transmission"
  ],
  "images": [
    {
      "uri": "textures/body_baseColor.png"
    },
    {
      "uri": "textures/body_metallicRoughness.png"
    },
    {
      "uri": "textures/body_normal.png"
    },
    {
      "uri": "textures/lights_baseColor.png"
    },
    {
      "uri": "textures/lights_metallicRoughness.png"
    },
    {
      "uri": "textures/lights_normal.png"
    },
    {
      "uri": "textures/wheel_baseColor.png"
    },
    {
      "uri": "textures/wheel_metallicRoughness.png"
    },
    {
      "uri": "textures/wheel_normal.png"
    },
    {
      "uri": "textures/misc_baseColor.png"
    },
    {
      "uri": "textures/misc_metallicRoughness.png"
    },
    {
      "uri": "textures/misc_normal.png"
    }
  ],
  "materials": [
    {
      "doubleSided": true,
      "extensions": {
        "KHR_materials_clearcoat": {
          "clearcoatFactor": 1.0,
          "clearcoatRoughnessFactor": 0.09899281931549411
        }
      },
      "name": "body",
      "normalTexture": {
        "index": 2
      },
      "pbrMetallicRoughness": {
        "baseColorTexture": {
          "index": 0
        },
        "metallicRoughnessTexture": {
          "index": 1
        }
      }
    },
    {
      "doubleSided": true,
      "name": "lights",
      "normalTexture": {
        "index": 5
      },
      "pbrMetallicRoughness": {
        "baseColorTexture": {
          "index": 3
        },
        "metallicRoughnessTexture": {
          "index": 4
        }
      }
    },
    {
      "alphaMode": "BLEND",
      "doubleSided": true,
      "extensions": {
        "KHR_materials_transmission": {
          "transmissionFactor": 1.0
        }
      },
      "name": "glass",
      "pbrMetallicRoughness": {
        "baseColorFactor": [
          0.8,
          0.8,
          0.8,
          0.25
        ],
        "metallicFactor": 0.0,
        "roughnessFactor": 0.0975609756
      }
    },
    {
      "doubleSided": true,
      "name": "wheel",
      "normalTexture": {
        "index": 8
      },
      "pbrMetallicRoughness": {
        "baseColorTexture": {
          "index": 6
        },
        "metallicRoughnessTexture": {
          "index": 7
        }
      }
    },
    {
      "doubleSided": true,
      "name": "misc",
      "normalTexture": {
        "index": 11
      },
      "pbrMetallicRoughness": {
        "baseColorTexture": {
          "index": 9
        },
        "metallicRoughnessTexture": {
          "index": 10
        }
      }
    }
  ],
  "meshes": [
    {
      "name": "Cube.000_body_0",
      "primitives": [
        {
          "attributes": {
            "NORMAL": 1,
            "POSITION": 0,
            "TANGENT": 2,
            "TEXCOORD_0": 3
          },
          "indices": 4,
          "material": 0,
          "mode": 4
        }
      ]
    },
    {
      "name": "Cube.003_lights_0",
      "primitives": [
        {
          "attributes": {
            "NORMAL": 6,
            "POSITION": 5,
            "TANGENT": 7,
            "TEXCOORD_0": 8,
            "TEXCOORD_1": 9
          },
          "indices": 10,
          "material": 1,
          "mode": 4
        }
      ]
    },
    {
      "name": "Cube.001_body_0",
      "primitives": [
        {
          "attributes": {
            "NORMAL": 12,
            "POSITION": 11,
            "TANGENT": 13,
            "TEXCOORD_0": 14
          },
          "indices": 15,
          "material": 0,
          "mode": 4
        }
      ]
    },
    {
      "name": "Cube.001_glass_0",
      "primitives": [
        {
          "attributes": {
            "NORMAL": 17,
            "POSITION": 16,
            "TEXCOORD_0": 18
          },
          "indices": 19,
          "material": 2,
          "mode": 4
        }
      ]
    },
    {
      "name": "Cylinder.001_wheel_0",
      "primitives": [
        {
          "attributes": {
            "NORMAL": 21,
            "POSITION": 20,
            "TANGENT": 22,
            "TEXCOORD_0": 23,
            "TEXCOORD_1": 24
          },
          "indices": 25,
          "material": 3,
          "mode": 4
        }
      ]
    },
    {
      "name": "Plane_misc_0",
      "primitives": [
        {
          "attributes": {
            "NORMAL": 27,
            "POSITION": 26,
            "TANGENT": 28,
            "TEXCOORD_0": 29
          },
          "indices": 30,
          "material": 4,
          "mode": 4
        }
      ]
    },
    {
      "name": "Cylinder_wheel_0",
      "primitives": [
        {
          "attributes": {
            "NORMAL": 32,
            "POSITION": 31,
            "TANGENT": 33,
            "TEXCOORD_0": 34,
            "TEXCOORD_1": 35
          },
          "indices": 36,
          "material": 3,
          "mode": 4
        }
      ]
    }
  ],
  "nodes": [
    {
      "children": [
        1
      ],
      "matrix": [
        1.0,
        0.0,
        0.0,
        0.0,
        0.0,
        2.220446049250313e-16,
        -1.0,
        0.0,
        0.0,
        1.0,
        2.220446049250313e-16,
        0.0,
        0.0,
        0.0,
        0.0,
        1.0
      ],
      "name": "Sketchfab_model"
    },
    {
      "children": [
        2
      ],
      "matrix": [
        1.0,
        0.0,
        0.0,
        0.0,
        0.0,
        0.0,
        1.0,
        0.0,
        0.0,
        -1.0,
        0.0,
        0.0,
        0.0,
        0.0,
        0.0,
        1.0
      ],
      "name": "d1443106ff0f4edcb682c22f1d08a802.fbx"
    },
    {
      "children": [
        3,
        5,
        7,
        10,
        12,
        14
      ],
      "name": "RootNode"
    },
    {
      "children": [
        4
      ],
      "matrix": [
        1.0,
        0.0,
        0.0,
        0.0,
        0.0,
        -1.6292067939183141e-07,
        -0.9999999999999868,
        0.0,
        0.0,
        0.9999999999999868,
        -1.6292067939183141e-07,
        0.0,
        0.0,
        0.0,
        0.0,
        1.0
      ],
      "name": "Cube.000"
    },
    {
      "mesh": 0,
      "name": "Cube.000_body_0"
    },
    {
      "children": [
        6
      ],
      "matrix": [
        1.0,
        0.0,
        0.0,
        0.0,
        0.0,
        -1.6292067939183141e-07,
        -0.9999999999999868,
        0.0,
        0.0,
        0.9999999999999868,
        -1.6292067939183141e-07,
        0.0,
        0.0,
        0.0,
        0.0,
        1.0
      ],
      "name": "Cube.003"
    },
    {
      "mesh": 1,
      "name": "Cube.003_lights_0"
    },
    {
      "children": [
        8,
        9
      ],
      "matrix": [
        1.0,
        0.0,
        0.0,
        0.0,
        0.0,
        -1.6292067939183141e-07,
        -0.9999999999999868,
        0.0,
        0.0,
        0.9999999999999868,
        -1.6292067939183141e-07,
        0.0,
        0.0,
        0.0,
        0.0,
        1.0
      ],
      "name": "Cube.001"
    },
    {
      "mesh": 2,
      "name": "Cube.001_body_0"
    },
    {
      "mesh": 3,
      "name": "Cube.001_glass_0"
    },
    {
      "children": [
        11
      ],
      "matrix": [
        7.549789948768648e-08,
        -0.9999999999999973,
        0.0,
        0.0,
        7.549789954319763e-08,
        5.551115123125783e-15,
        -0.9999999999999973,
        0.0,
        0.9999999999999944,
        7.549789954319763e-08,
        7.549789948768648e-08,
        0.0,
        1.207977294921875,
        0.6108664274215698,
        -1.653902292251587,
        1.0
      ],
      "name": "Cylinder.001"
    },
    {
      "mesh": 4,
      "name": "Cylinder.001_wheel_0"
    },
    {
      "children": [
        13
      ],
      "matrix": [
        1.0,
        0.0,
        0.0,
        0.0,
        0.0,
        -1.6292067939183141e-07,
        -0.9999999999999868,
        0.0,
        0.0,
        0.9999999999999868,
        -1.6292067939183141e-07,
        0.0,
        0.0,
        0.3149053454399109,
        0.0,
        1.0
      ],
      "name": "Plane"
    },
    {
      "mesh": 5,
      "name": "Plane_misc_0"
    },
    {
      "children": [
        15
      ],
      "matrix": [
        7.549789948768648e-08,
        -0.9999999999999973,
        0.0,
        0.0,
        7.549789954319763e-08,
        5.551115123125783e-15,
        -0.9999999999999973,
        0.0,
        0.9999999999999944,
        7.549789954319763e-08,
        7.549789948768648e-08,
        0.0,
        1.2258388996124268,
        0.5855435132980347,
        2.504432201385498,
        1.0
      ],
      "name": "Cylinder"
    },
    {
      "mesh": 6,
      "name": "Cylinder_wheel_0"
    }
  ],
  "samplers": [
    {
      "magFilter": 9729,
      "minFilter": 9987,
      "wrapS": 10497,
      "wrapT": 10497
    }
  ],
  "scene": 0,
  "scenes": [
    {
      "name": "Sketchfab_Scene",
      "nodes": [
        0
      ]
    }
  ],
  "textures": [
    {
      "sampler": 0,
      "source": 0
    },
    {
      "sampler": 0,
      "source": 1
    },
    {
      "sampler": 0,
      "source": 2
    },
    {
      "sampler": 0,
      "source": 3
    },
    {
      "sampler": 0,
      "source": 4
    },
    {
      "sampler": 0,
      "source": 5
    },
    {
      "sampler": 0,
      "source": 6
    },
    {
      "sampler": 0,
      "source": 7
    },
    {
      "sampler": 0,
      "source": 8
    },
    {
      "sampler": 0,
      "source": 9
    },
    {
      "sampler": 0,
      "source": 10
    },
    {
      "sampler": 0,
      "source": 11
    }
  ]
}
